<?xml version="1.0"?>
<svg xmlns="http://www.w3.org/2000/svg" xmlns:xlink="http://www.w3.org/1999/xlink" xmlns:svgjs="http://svgjs.com/svgjs" version="1.1" width="512" height="512" x="0" y="0" viewBox="0 0 512 512" style="enable-background:new 0 0 512 512" xml:space="preserve" class=""><g><g xmlns="http://www.w3.org/2000/svg"><path d="m180.001 303.503v-9.902c0-11.055-8.994-20.049-20.049-20.049h-16.542v-16.542c0-11.055-8.994-20.049-20.049-20.049h-9.902c-11.055 0-20.049 8.994-20.049 20.049v16.542h-16.542c-11.055 0-20.049 8.994-20.049 20.049v9.902c0 11.055 8.994 20.049 20.049 20.049h16.542v16.542c0 11.055 8.994 20.049 20.049 20.049h9.902c11.055 0 20.049-8.994 20.049-20.049v-16.542h16.542c11.055 0 20.049-8.993 20.049-20.049zm-15 0c0 2.784-2.265 5.049-5.049 5.049h-24.042c-4.142 0-7.5 3.358-7.5 7.5v24.042c0 2.784-2.265 5.049-5.049 5.049h-9.902c-2.784 0-5.049-2.265-5.049-5.049v-24.042c0-4.142-3.358-7.5-7.5-7.5h-24.042c-2.784 0-5.049-2.265-5.049-5.049v-9.902c0-2.784 2.265-5.049 5.049-5.049h24.042c4.142 0 7.5-3.358 7.5-7.5v-24.042c0-2.784 2.265-5.049 5.049-5.049h9.902c2.784 0 5.049 2.265 5.049 5.049v24.042c0 4.142 3.358 7.5 7.5 7.5h24.042c2.784 0 5.049 2.265 5.049 5.049z" fill="#565656" data-original="#000000" style="" class=""/><path d="m342.179 287.465c13.924 0 25.252-11.328 25.252-25.252s-11.328-25.252-25.252-25.252-25.252 11.328-25.252 25.252 11.328 25.252 25.252 25.252zm0-35.504c5.653 0 10.252 4.599 10.252 10.252s-4.599 10.252-10.252 10.252c-5.652 0-10.252-4.599-10.252-10.252s4.599-10.252 10.252-10.252z" fill="#565656" data-original="#000000" style="" class=""/><path d="m342.179 309.64c-13.924 0-25.252 11.328-25.252 25.252s11.328 25.251 25.252 25.251 25.252-11.328 25.252-25.251-11.328-25.252-25.252-25.252zm0 35.503c-5.652 0-10.252-4.599-10.252-10.251s4.6-10.252 10.252-10.252c5.653 0 10.252 4.599 10.252 10.252s-4.599 10.251-10.252 10.251z" fill="#565656" data-original="#000000" style="" class=""/><path d="m388.518 323.804c13.924 0 25.252-11.328 25.252-25.252s-11.328-25.251-25.252-25.251-25.252 11.328-25.252 25.251 11.328 25.252 25.252 25.252zm0-35.503c5.653 0 10.252 4.599 10.252 10.251s-4.599 10.252-10.252 10.252-10.252-4.599-10.252-10.252 4.599-10.251 10.252-10.251z" fill="#565656" data-original="#000000" style="" class=""/><path d="m295.84 323.804c13.924 0 25.252-11.328 25.252-25.252s-11.328-25.251-25.252-25.251-25.252 11.328-25.252 25.251 11.328 25.252 25.252 25.252zm0-35.503c5.653 0 10.252 4.599 10.252 10.251s-4.599 10.252-10.252 10.252-10.252-4.599-10.252-10.252 4.599-10.251 10.252-10.251z" fill="#565656" data-original="#000000" style="" class=""/><circle cx="286.199" cy="203.417" r="11.013" fill="#565656" data-original="#000000" style="" class=""/><path d="m210.975 230.264h46.639c4.142 0 7.5-3.358 7.5-7.5s-3.358-7.5-7.5-7.5h-46.639c-4.142 0-7.5 3.358-7.5 7.5s3.358 7.5 7.5 7.5z" fill="#565656" data-original="#000000" style="" class=""/><path d="m182.39 214.43c6.082 0 11.013-4.931 11.013-11.013s-4.931-11.013-11.013-11.013c-6.083 0-11.013 4.931-11.013 11.013s4.931 11.013 11.013 11.013z" fill="#565656" data-original="#000000" style="" class=""/><path d="m451.704 141.298c-17.345 0-128.91 0-146.883 0-3.6-14.465-11.628-27.579-23.025-37.431-6-5.187-12.768-9.299-20.001-12.256v-79.714c0-4.142-3.358-7.5-7.5-7.5h-40c-4.143 0-7.5 3.358-7.5 7.5v79.714c-7.234 2.957-14.002 7.069-20.002 12.256-11.397 9.852-19.425 22.967-23.025 37.431h-103.472c-33.247 0-60.296 27.049-60.296 60.297v136.318c0 33.248 27.049 60.296 60.296 60.296h95.107v46.086h-8.664c-17.453 0-31.653 14.2-31.653 31.653s14.2 31.653 31.653 31.653h40.317c17.454 0 31.653-14.2 31.653-31.653v-77.74h49.105v46.086h-8.664c-17.454 0-31.653 14.2-31.653 31.653s14.199 31.653 31.653 31.653h40.317c17.454 0 31.653-14.2 31.653-31.653v-77.74h77.171 43.411c33.247 0 60.296-27.049 60.296-60.296v-136.316c.002-33.248-27.047-60.297-60.294-60.297zm-229.909-54.027v-67.874h25v67.873c-3.904-.679-8.276-1.077-12.5-1.077-4.291.001-8.704.417-12.5 1.078zm-25.192 27.944c21.556-18.634 53.736-18.713 75.384 0 8.089 6.992 14.04 16.047 17.251 26.083h-109.886c3.211-10.036 9.162-19.091 17.251-26.083zm-181.603 222.698v-136.318c0-24.977 20.32-45.296 45.296-45.296h347.997c24.977 0 45.296 20.32 45.296 45.296v136.318c0 24.977-20.319 45.296-45.296 45.296-31.501 0-314.769 0-347.997 0-24.976 0-45.296-20.319-45.296-45.296zm172.057 154.69h-40.317c-9.183 0-16.653-7.471-16.653-16.653s7.471-16.653 16.653-16.653h16.164c4.143 0 7.5-3.358 7.5-7.5v-28.811h33.307v52.964c-.001 9.182-7.472 16.653-16.654 16.653zm112.412 0h-40.317c-9.183 0-16.653-7.471-16.653-16.653s7.471-16.653 16.653-16.653h16.164c4.142 0 7.5-3.358 7.5-7.5v-28.811h33.307v52.964c-.001 9.182-7.472 16.653-16.654 16.653zm197.531-154.69c0 24.977-20.32 45.296-45.296 45.296h-3.654c12.676-11.117 20.539-27.593 20.539-45.296v-136.318c0-17.762-7.856-34.173-20.539-45.296h3.654c24.976 0 45.296 20.32 45.296 45.296z" fill="#565656" data-original="#000000" style="" class=""/></g></g></svg>
