<?xml version="1.0"?>
<svg xmlns="http://www.w3.org/2000/svg" xmlns:xlink="http://www.w3.org/1999/xlink" xmlns:svgjs="http://svgjs.com/svgjs" version="1.1" width="512" height="512" x="0" y="0" viewBox="0 0 512 512" style="enable-background:new 0 0 512 512" xml:space="preserve" class=""><g><g xmlns="http://www.w3.org/2000/svg"><path d="m218.337 111.52c6.309 0 11.423-5.114 11.423-11.423s-5.114-11.423-11.423-11.423-11.423 5.114-11.423 11.423c0 6.308 5.114 11.423 11.423 11.423z" fill="#565656" data-original="#000000" style=""/><path d="m140.311 127.663h48.376c4.142 0 7.5-3.358 7.5-7.5s-3.358-7.5-7.5-7.5h-48.376c-4.142 0-7.5 3.358-7.5 7.5s3.359 7.5 7.5 7.5z" fill="#565656" data-original="#000000" style=""/><path d="m110.662 111.52c6.309 0 11.423-5.114 11.423-11.423s-5.114-11.423-11.423-11.423-11.423 5.114-11.423 11.423c0 6.308 5.114 11.423 11.423 11.423z" fill="#565656" data-original="#000000" style=""/><path d="m443.369 119.124h-168.297c.201-2.723.307-5.471.307-8.245 0-61.139-49.74-110.879-110.88-110.879s-110.879 49.74-110.879 110.879c0 3.345.158 6.653.449 9.923-28.855 6.637-49.791 32.359-49.791 62.675v264.169c0 35.485 28.869 64.354 64.353 64.354h374.737c35.485 0 64.353-28.869 64.353-64.354 0-34.674 0-240.549 0-264.169.001-35.484-28.868-64.353-64.352-64.353zm-278.87-104.124c52.868 0 95.879 43.011 95.879 95.879 0 53.433-43.543 95.879-95.879 95.879-53.926 0-95.879-44.043-95.879-95.879 0-52.868 43.011-95.879 95.879-95.879zm-39.258 289.435c3.139 19.006 19.696 33.296 39.259 33.296 19.441 0 36.117-14.185 39.259-33.296 15.306 6.308 24.767 15.938 24.767 25.796 0 7.999-6.089 15.852-17.145 22.112-12.401 7.021-29.05 10.889-46.881 10.889s-34.48-3.867-46.881-10.889c-11.056-6.26-17.145-14.113-17.145-22.112 0-9.86 9.459-19.489 24.767-25.796zm64.047-6.492c0 13.668-11.12 24.788-24.788 24.788s-24.788-11.12-24.788-24.788c0-14.232 0-34.034 0-48.185 8.05 1.434 16.332 2.19 24.788 2.19s16.738-.755 24.788-2.19zm-170.01-114.465c0-22.885 15.544-42.366 37.127-47.826 8.415 36.319 34.067 65.508 68.306 78.719v74.237c-24.35 8.443-39.238 24.067-39.238 41.623 0 26.916 34.712 48 79.026 48s79.026-21.084 79.026-48c0-17.556-14.887-33.18-39.237-41.623v-74.237c34.995-13.501 60.83-43.675 68.647-80.247h170.433c27.214 0 49.353 22.14 49.353 49.354v199.559c0 27.213-22.14 49.354-49.353 49.354h-374.737c-27.213 0-49.353-22.14-49.353-49.354zm473.444 240.814v23.354c0 27.213-22.14 49.354-49.353 49.354h-374.738c-27.213 0-49.353-22.14-49.353-49.354v-23.354c11.909 14.215 29.824 23.098 49.353 23.098h374.737c19.451 0 37.4-8.823 49.354-23.098z" fill="#565656" data-original="#000000" style=""/><path d="m294.968 362.193c16.062 10.342 37.27 16.038 59.716 16.038s43.654-5.696 59.716-16.038c17.084-11 26.493-25.967 26.493-42.142v-48.651-.001c-.001-16.175-9.409-31.141-26.493-42.141-16.062-10.342-37.269-16.038-59.716-16.038s-43.654 5.696-59.716 16.038c-17.083 11-26.492 25.966-26.493 42.141v.001 48.651c0 16.176 9.408 31.142 26.493 42.142zm59.715-133.973c38.599 0 71.208 19.774 71.208 43.18 0 19.749-23.215 36.912-53.655 41.794-5.738.92-11.625 1.387-17.553 1.387-35.587 0-71.208-18.002-71.209-43.18.001-23.407 32.61-43.181 71.209-43.181zm-71.208 76.229c3.388 3.318 7.507 6.527 11.493 9.094 16.062 10.342 37.27 16.038 59.716 16.038s43.654-5.696 59.716-16.038c3.978-2.561 8.097-5.767 11.493-9.094v15.603c0 23.406-32.609 43.18-71.208 43.18s-71.209-19.774-71.209-43.18v-15.603z" fill="#565656" data-original="#000000" style=""/></g></g></svg>
