<?xml version="1.0"?>
<svg xmlns="http://www.w3.org/2000/svg" xmlns:xlink="http://www.w3.org/1999/xlink" xmlns:svgjs="http://svgjs.com/svgjs" version="1.1" width="512" height="512" x="0" y="0" viewBox="0 0 512.162 512.162" style="enable-background:new 0 0 512 512" xml:space="preserve" class=""><g>
<g xmlns="http://www.w3.org/2000/svg" transform="translate(0 -1)">
	<g>
		<g>
			<path d="M278.143,397.423c-13.622-6.832-29.74-6.49-43.059,0.914c-6.533,3.286-10.807,9.817-11.204,17.118     c0.371,6.78,4.355,12.837,10.434,15.862c6.226,3.36,13.216,5.05,20.29,4.908c7.97,0.11,15.827-1.895,22.77-5.809     c6.527-3.292,10.8-9.819,11.204-17.118C288.204,406.516,284.221,400.456,278.143,397.423z M270.439,418.864     c-9.118,4.866-19.992,5.163-29.362,0.803c-2.322-1.349-3.717-2.954-3.724-4.309c-0.013-1.283,1.211-3.395,4.665-5.467     c4.871-2.652,10.349-3.99,15.895-3.882c4.676-0.133,9.309,0.922,13.467,3.066c2.322,1.355,3.717,2.967,3.724,4.322     C275.11,414.679,273.893,416.791,270.439,418.864z" fill="#565656" data-original="#000000" style=""/>
			<path d="M97.675,281.085c-2.105-1.168-4.672-1.124-6.736,0.114c-17.02,10.211-26.336,23.875-26.23,38.474     c0.105,13.671,8.566,26.079,23.842,34.947c3.218,1.854,7.329,0.754,9.192-2.458c1.864-3.212,0.777-7.327-2.429-9.2     c-10.98-6.368-17.066-14.678-17.132-23.388c-0.066-9.5,7.112-19.276,19.691-26.822c2.064-1.239,3.31-3.484,3.269-5.891     C101.101,284.454,99.78,282.253,97.675,281.085z" fill="#565656" data-original="#000000" style=""/>
			<path d="M494.334,282.061L300.847,169.739c-0.158-0.107-3.133-1.78-6.493-3.65v-1.258c38.297-14.369,60.831-54.077,53.529-94.324     C340.581,30.261,305.534,1,264.63,1c-40.904,0-75.951,29.261-83.253,69.507c-7.302,40.247,15.232,79.954,53.529,94.324v1.34     c-3.787,1.328-7.436,3.02-10.895,5.054l-203.382,122c-7.139,3.908-12.86,9.973-16.347,17.327     c-2.122,1.152-3.452,3.364-3.475,5.778v48.164c0.029,1.476,0.552,2.899,1.485,4.043c1.331,10.126,7.644,18.913,16.817,23.405     l193.947,112.566c11.007,5.917,23.355,8.892,35.849,8.638c14.227,0.189,28.251-3.393,40.645-10.381l203.283-121.98     c10.017-4.91,16.92-14.496,18.401-25.553c0.021-0.186-0.016-0.353-0.002-0.536c0.003-0.082,0.048-0.151,0.048-0.234v-46.163     c0.012-0.342,0.075-0.678,0.072-1.021C510.676,296.407,504.163,286.756,494.334,282.061z M193.492,85.712     c-0.013-37.336,28.839-68.329,66.081-70.983c37.241-2.654,70.198,23.933,75.48,60.893s-18.907,71.715-55.401,79.599     c-0.714,0.153-1.433,0.272-2.15,0.403c-1.353,0.248-2.719,0.458-4.099,0.627c-0.852,0.104-1.702,0.21-2.557,0.284     c-1.581,0.138-3.181,0.211-4.789,0.242c-0.952,0.019-1.903,0.019-2.854,0c-1.609-0.032-3.207-0.105-4.788-0.242     c-0.856-0.074-1.707-0.18-2.559-0.284c-1.378-0.171-2.745-0.38-4.099-0.627c-0.717-0.13-1.436-0.25-2.148-0.403     C216.895,148.114,193.543,119.189,193.492,85.712z M280.88,168.758v107.27c0,8.975-7.275,16.25-16.25,16.25     c-8.975,0-16.25-7.275-16.25-16.25v-107.27c1.452,0.283,2.93,0.43,4.398,0.636c1.168,0.165,2.314,0.39,3.497,0.506     c2.03,0.199,4.071,0.257,6.112,0.31c0.752,0.02,1.485,0.113,2.243,0.113c0.757,0,1.49-0.094,2.243-0.113     c2.04-0.053,4.081-0.111,6.112-0.31c1.182-0.116,2.329-0.341,3.495-0.506C277.949,169.189,279.428,169.041,280.88,168.758z      M264.63,305.752c16.416,0,29.724-13.308,29.724-29.724v-31.674c9.645,1.698,18.94,4.988,27.507,9.733     c12.579,7.289,19.553,16.882,19.625,27c0.086,11.006-8.105,22.27-22.473,30.894c-31.355,18.868-81.112,20.118-110.921,2.783     c-12.592-7.296-19.572-16.895-19.658-27.013c-0.086-11.02,8.112-22.303,22.5-30.954c7.509-4.39,15.572-7.756,23.974-10.008     v29.238C234.906,292.444,248.214,305.752,264.63,305.752z M201.321,326.416c17.91,9.546,37.98,14.314,58.27,13.842     c23.207,0.364,46.099-5.405,66.362-16.724c18.559-11.145,29.132-26.651,29.007-42.553c-0.67-13.956-8.054-26.724-19.816-34.266     c4.652,1.893,9.171,4.099,13.526,6.602c19.164,11.151,29.776,25.941,29.888,41.645c0.112,16.954-12.289,34.164-34.033,47.211     c-46.04,27.684-119.283,29.467-163.257,4.02c-19.178-11.145-29.803-25.941-29.914-41.664     c-0.118-16.974,12.27-34.171,33.987-47.197c2.283-1.37,4.808-2.549,7.24-3.802c-10.697,8.244-17.158,20.831-17.622,34.329     C175.084,302.943,184.446,316.633,201.321,326.416z M497.808,354.135c-1.322,6.646-5.747,12.257-11.901,15.091L282.624,491.212     c-19.474,10.541-42.812,11.15-62.809,1.638L25.867,380.285c-5.55-2.473-9.426-7.639-10.25-13.658     c-0.015-0.138-0.013-0.277,0.007-0.414c0.17-1.689-0.31-3.38-1.342-4.727v-18.779c1.531,1.198,3.137,2.297,4.809,3.289     l193.954,112.507c11.021,5.938,23.391,8.925,35.908,8.671c14.218,0.192,28.232-3.4,40.605-10.408l203.329-121.947     c1.702-1.035,3.345-2.165,4.921-3.385V354.135z M497.808,308.193c-1.345,6.622-5.748,12.215-11.868,15.079L282.617,445.219     c-19.468,10.571-42.821,11.175-62.809,1.625L25.88,334.357c-5.606-2.458-9.507-7.683-10.27-13.757     c1.006-6.974,5.516-12.945,11.947-15.822l203.382-121.993c1.295-0.778,2.633-1.415,3.967-2.061v44.767     c-19.89,3.349-39.023,10.22-56.5,20.288c-26.283,15.763-40.678,36.664-40.526,58.842c0.145,20.684,13.151,39.586,36.632,53.224     c25.448,13.511,53.939,20.261,82.743,19.605c32.944,0.522,65.443-7.662,94.211-23.724c26.309-15.789,40.711-36.691,40.559-58.855     c-0.138-20.658-13.132-39.553-36.592-53.204c-18.855-10.34-39.656-16.645-61.079-18.514v-41.62l193.217,112.187     c5.445,2.407,9.299,7.409,10.237,13.288V308.193z" fill="#565656" data-original="#000000" style=""/>
			<path d="M263.702,44.903c0-3.721-3.016-6.737-6.737-6.737c-24.868,0.031-45.019,20.185-45.046,45.053     c0,3.721,3.016,6.737,6.737,6.737c3.721,0,6.737-3.016,6.737-6.737c0.018-17.431,14.142-31.558,31.572-31.579     C260.686,51.64,263.702,48.624,263.702,44.903z" fill="#565656" data-original="#000000" style=""/>
		</g>
	</g>
</g>
<g xmlns="http://www.w3.org/2000/svg">
</g>
<g xmlns="http://www.w3.org/2000/svg">
</g>
<g xmlns="http://www.w3.org/2000/svg">
</g>
<g xmlns="http://www.w3.org/2000/svg">
</g>
<g xmlns="http://www.w3.org/2000/svg">
</g>
<g xmlns="http://www.w3.org/2000/svg">
</g>
<g xmlns="http://www.w3.org/2000/svg">
</g>
<g xmlns="http://www.w3.org/2000/svg">
</g>
<g xmlns="http://www.w3.org/2000/svg">
</g>
<g xmlns="http://www.w3.org/2000/svg">
</g>
<g xmlns="http://www.w3.org/2000/svg">
</g>
<g xmlns="http://www.w3.org/2000/svg">
</g>
<g xmlns="http://www.w3.org/2000/svg">
</g>
<g xmlns="http://www.w3.org/2000/svg">
</g>
<g xmlns="http://www.w3.org/2000/svg">
</g>
</g></svg>
